<mxfile host="app.diagrams.net" agent="Mozilla/5.0 (Windows NT 10.0; Win64; x64) AppleWebKit/537.36 (KHTML, like Gecko) Chrome/128.0.0.0 Safari/537.36" version="24.7.13">
  <diagram name="Página-1" id="zNmXv9yLppva4Jgc_3MA">
    <mxGraphModel dx="2594" dy="726" grid="1" gridSize="10" guides="1" tooltips="1" connect="1" arrows="1" fold="1" page="1" pageScale="1" pageWidth="827" pageHeight="1169" math="0" shadow="0">
      <root>
        <mxCell id="0" />
        <mxCell id="1" parent="0" />
        <mxCell id="EkAaGMqCYUGxByEIw1Pd-1" value="PELICULA" style="rounded=0;whiteSpace=wrap;html=1;fontStyle=1" parent="1" vertex="1">
          <mxGeometry x="290" y="80" width="120" height="30" as="geometry" />
        </mxCell>
        <mxCell id="EkAaGMqCYUGxByEIw1Pd-2" value="USUARIO" style="rounded=0;whiteSpace=wrap;html=1;fontStyle=0" parent="1" vertex="1">
          <mxGeometry x="-413" y="197.5" width="120" height="30" as="geometry" />
        </mxCell>
        <mxCell id="EkAaGMqCYUGxByEIw1Pd-3" value="CAPITULO" style="rounded=0;whiteSpace=wrap;html=1;" parent="1" vertex="1">
          <mxGeometry x="580" y="280" width="95" height="30" as="geometry" />
        </mxCell>
        <mxCell id="EkAaGMqCYUGxByEIw1Pd-4" value="MINI-SERIE" style="rounded=0;whiteSpace=wrap;html=1;" parent="1" vertex="1">
          <mxGeometry x="294" y="280" width="120" height="30" as="geometry" />
        </mxCell>
        <mxCell id="EkAaGMqCYUGxByEIw1Pd-5" value="MATERIAL&amp;nbsp;&lt;div&gt;AUDIOVISUAL&lt;/div&gt;" style="rounded=0;whiteSpace=wrap;html=1;" parent="1" vertex="1">
          <mxGeometry x="-80" y="195" width="130" height="35" as="geometry" />
        </mxCell>
        <mxCell id="FlTq5NcB_ZuWoMm5LYxy-2" value="CAPITULO" style="rounded=0;whiteSpace=wrap;html=1;" vertex="1" parent="1">
          <mxGeometry x="587.5" y="287.5" width="80" height="15" as="geometry" />
        </mxCell>
        <mxCell id="FlTq5NcB_ZuWoMm5LYxy-4" value="" style="endArrow=none;html=1;rounded=0;exitX=1;exitY=0.5;exitDx=0;exitDy=0;entryX=0;entryY=0.5;entryDx=0;entryDy=0;" edge="1" parent="1" source="FlTq5NcB_ZuWoMm5LYxy-5" target="EkAaGMqCYUGxByEIw1Pd-5">
          <mxGeometry width="50" height="50" relative="1" as="geometry">
            <mxPoint x="-180" y="240" as="sourcePoint" />
            <mxPoint x="-130" y="190" as="targetPoint" />
          </mxGeometry>
        </mxCell>
        <mxCell id="FlTq5NcB_ZuWoMm5LYxy-96" value="(0,M)" style="edgeLabel;html=1;align=center;verticalAlign=middle;resizable=0;points=[];" vertex="1" connectable="0" parent="FlTq5NcB_ZuWoMm5LYxy-4">
          <mxGeometry x="-0.1102" y="1" relative="1" as="geometry">
            <mxPoint as="offset" />
          </mxGeometry>
        </mxCell>
        <mxCell id="FlTq5NcB_ZuWoMm5LYxy-6" value="" style="endArrow=none;html=1;rounded=0;exitX=1;exitY=0.5;exitDx=0;exitDy=0;entryX=0;entryY=0.5;entryDx=0;entryDy=0;" edge="1" parent="1" source="EkAaGMqCYUGxByEIw1Pd-2" target="FlTq5NcB_ZuWoMm5LYxy-5">
          <mxGeometry width="50" height="50" relative="1" as="geometry">
            <mxPoint x="-290" y="215" as="sourcePoint" />
            <mxPoint x="-80" y="213" as="targetPoint" />
          </mxGeometry>
        </mxCell>
        <mxCell id="FlTq5NcB_ZuWoMm5LYxy-95" value="(0,N)" style="edgeLabel;html=1;align=center;verticalAlign=middle;resizable=0;points=[];" vertex="1" connectable="0" parent="FlTq5NcB_ZuWoMm5LYxy-6">
          <mxGeometry x="0.0294" relative="1" as="geometry">
            <mxPoint as="offset" />
          </mxGeometry>
        </mxCell>
        <mxCell id="FlTq5NcB_ZuWoMm5LYxy-5" value="Visualiza" style="rhombus;whiteSpace=wrap;html=1;" vertex="1" parent="1">
          <mxGeometry x="-220" y="183.75" width="70" height="57.5" as="geometry" />
        </mxCell>
        <mxCell id="FlTq5NcB_ZuWoMm5LYxy-9" value="" style="endArrow=none;html=1;rounded=0;exitX=-0.001;exitY=0.396;exitDx=0;exitDy=0;exitPerimeter=0;" edge="1" parent="1" source="FlTq5NcB_ZuWoMm5LYxy-10">
          <mxGeometry width="50" height="50" relative="1" as="geometry">
            <mxPoint x="160" y="204" as="sourcePoint" />
            <mxPoint x="50" y="208" as="targetPoint" />
            <Array as="points" />
          </mxGeometry>
        </mxCell>
        <mxCell id="FlTq5NcB_ZuWoMm5LYxy-10" value="d" style="ellipse;whiteSpace=wrap;html=1;aspect=fixed;" vertex="1" parent="1">
          <mxGeometry x="160" y="192.5" width="40" height="40" as="geometry" />
        </mxCell>
        <mxCell id="FlTq5NcB_ZuWoMm5LYxy-11" value="" style="endArrow=none;html=1;rounded=0;" edge="1" parent="1">
          <mxGeometry width="50" height="50" relative="1" as="geometry">
            <mxPoint x="160" y="214" as="sourcePoint" />
            <mxPoint x="50" y="214" as="targetPoint" />
          </mxGeometry>
        </mxCell>
        <mxCell id="FlTq5NcB_ZuWoMm5LYxy-14" value="Visualiza" style="rhombus;whiteSpace=wrap;html=1;" vertex="1" parent="1">
          <mxGeometry x="460" y="266.25" width="70" height="57.5" as="geometry" />
        </mxCell>
        <mxCell id="FlTq5NcB_ZuWoMm5LYxy-15" value="contiene" style="rhombus;whiteSpace=wrap;html=1;" vertex="1" parent="1">
          <mxGeometry x="466.25" y="272.5" width="57.5" height="45" as="geometry" />
        </mxCell>
        <mxCell id="FlTq5NcB_ZuWoMm5LYxy-16" value="" style="endArrow=none;html=1;rounded=0;exitX=1;exitY=0.5;exitDx=0;exitDy=0;" edge="1" parent="1" source="EkAaGMqCYUGxByEIw1Pd-4">
          <mxGeometry width="50" height="50" relative="1" as="geometry">
            <mxPoint x="530" y="300" as="sourcePoint" />
            <mxPoint x="460" y="295" as="targetPoint" />
          </mxGeometry>
        </mxCell>
        <mxCell id="FlTq5NcB_ZuWoMm5LYxy-102" value="(1,1)" style="edgeLabel;html=1;align=center;verticalAlign=middle;resizable=0;points=[];" vertex="1" connectable="0" parent="FlTq5NcB_ZuWoMm5LYxy-16">
          <mxGeometry x="0.1553" y="1" relative="1" as="geometry">
            <mxPoint as="offset" />
          </mxGeometry>
        </mxCell>
        <mxCell id="FlTq5NcB_ZuWoMm5LYxy-17" value="" style="endArrow=none;html=1;rounded=0;entryX=1;entryY=0.5;entryDx=0;entryDy=0;exitX=0;exitY=0.5;exitDx=0;exitDy=0;" edge="1" parent="1" source="EkAaGMqCYUGxByEIw1Pd-3" target="FlTq5NcB_ZuWoMm5LYxy-14">
          <mxGeometry width="50" height="50" relative="1" as="geometry">
            <mxPoint x="500" y="352.5" as="sourcePoint" />
            <mxPoint x="550" y="302.5" as="targetPoint" />
          </mxGeometry>
        </mxCell>
        <mxCell id="FlTq5NcB_ZuWoMm5LYxy-101" value="(1,N)" style="edgeLabel;html=1;align=center;verticalAlign=middle;resizable=0;points=[];" vertex="1" connectable="0" parent="FlTq5NcB_ZuWoMm5LYxy-17">
          <mxGeometry x="-0.04" relative="1" as="geometry">
            <mxPoint as="offset" />
          </mxGeometry>
        </mxCell>
        <mxCell id="FlTq5NcB_ZuWoMm5LYxy-18" value="titulo" style="ellipse;whiteSpace=wrap;html=1;" vertex="1" parent="1">
          <mxGeometry x="700" y="198.75" width="80" height="42.5" as="geometry" />
        </mxCell>
        <mxCell id="FlTq5NcB_ZuWoMm5LYxy-19" value="sinopsis" style="ellipse;whiteSpace=wrap;html=1;" vertex="1" parent="1">
          <mxGeometry x="720" y="273.75" width="80" height="42.5" as="geometry" />
        </mxCell>
        <mxCell id="FlTq5NcB_ZuWoMm5LYxy-20" value="duración" style="ellipse;whiteSpace=wrap;html=1;" vertex="1" parent="1">
          <mxGeometry x="700" y="350" width="80" height="42.5" as="geometry" />
        </mxCell>
        <mxCell id="FlTq5NcB_ZuWoMm5LYxy-21" value="" style="endArrow=none;html=1;rounded=0;entryX=1;entryY=1;entryDx=0;entryDy=0;exitX=0;exitY=0;exitDx=0;exitDy=0;" edge="1" parent="1" source="FlTq5NcB_ZuWoMm5LYxy-20" target="EkAaGMqCYUGxByEIw1Pd-3">
          <mxGeometry width="50" height="50" relative="1" as="geometry">
            <mxPoint x="710" y="350" as="sourcePoint" />
            <mxPoint x="667.5" y="332.5" as="targetPoint" />
          </mxGeometry>
        </mxCell>
        <mxCell id="FlTq5NcB_ZuWoMm5LYxy-22" value="" style="endArrow=none;html=1;rounded=0;exitX=1;exitY=0.5;exitDx=0;exitDy=0;entryX=0;entryY=0.5;entryDx=0;entryDy=0;" edge="1" parent="1" source="EkAaGMqCYUGxByEIw1Pd-3" target="FlTq5NcB_ZuWoMm5LYxy-19">
          <mxGeometry width="50" height="50" relative="1" as="geometry">
            <mxPoint x="602.5" y="230" as="sourcePoint" />
            <mxPoint x="652.5" y="180" as="targetPoint" />
          </mxGeometry>
        </mxCell>
        <mxCell id="FlTq5NcB_ZuWoMm5LYxy-26" value="" style="endArrow=none;html=1;rounded=0;exitX=1;exitY=0;exitDx=0;exitDy=0;entryX=0;entryY=1;entryDx=0;entryDy=0;" edge="1" parent="1" source="EkAaGMqCYUGxByEIw1Pd-3" target="FlTq5NcB_ZuWoMm5LYxy-18">
          <mxGeometry width="50" height="50" relative="1" as="geometry">
            <mxPoint x="640" y="248.75" as="sourcePoint" />
            <mxPoint x="690" y="198.75" as="targetPoint" />
          </mxGeometry>
        </mxCell>
        <mxCell id="FlTq5NcB_ZuWoMm5LYxy-35" value="" style="rounded=0;orthogonalLoop=1;jettySize=auto;html=1;endArrow=halfCircle;endFill=0;endSize=6;strokeWidth=1;sketch=0;fontSize=12;curved=1;exitX=0;exitY=0.5;exitDx=0;exitDy=0;" edge="1" parent="1" source="EkAaGMqCYUGxByEIw1Pd-1">
          <mxGeometry relative="1" as="geometry">
            <mxPoint x="370" y="190" as="sourcePoint" />
            <mxPoint x="230" y="160" as="targetPoint" />
          </mxGeometry>
        </mxCell>
        <mxCell id="FlTq5NcB_ZuWoMm5LYxy-36" value="" style="ellipse;whiteSpace=wrap;html=1;align=center;aspect=fixed;fillColor=none;strokeColor=none;resizable=0;perimeter=centerPerimeter;rotatable=0;allowArrows=0;points=[];outlineConnect=1;" vertex="1" parent="1">
          <mxGeometry x="250" y="185" width="10" height="10" as="geometry" />
        </mxCell>
        <mxCell id="FlTq5NcB_ZuWoMm5LYxy-37" value="" style="endArrow=none;html=1;rounded=0;exitX=1;exitY=0;exitDx=0;exitDy=0;" edge="1" parent="1" source="FlTq5NcB_ZuWoMm5LYxy-10">
          <mxGeometry width="50" height="50" relative="1" as="geometry">
            <mxPoint x="190" y="200" as="sourcePoint" />
            <mxPoint x="240" y="148.75" as="targetPoint" />
          </mxGeometry>
        </mxCell>
        <mxCell id="FlTq5NcB_ZuWoMm5LYxy-38" value="" style="rounded=0;orthogonalLoop=1;jettySize=auto;html=1;endArrow=halfCircle;endFill=0;endSize=6;strokeWidth=1;sketch=0;fontSize=12;curved=1;exitX=0;exitY=0.5;exitDx=0;exitDy=0;" edge="1" parent="1" source="EkAaGMqCYUGxByEIw1Pd-4">
          <mxGeometry relative="1" as="geometry">
            <mxPoint x="305" y="219.71" as="sourcePoint" />
            <mxPoint x="220" y="240" as="targetPoint" />
          </mxGeometry>
        </mxCell>
        <mxCell id="FlTq5NcB_ZuWoMm5LYxy-39" value="" style="ellipse;whiteSpace=wrap;html=1;align=center;aspect=fixed;fillColor=none;strokeColor=none;resizable=0;perimeter=centerPerimeter;rotatable=0;allowArrows=0;points=[];outlineConnect=1;" vertex="1" parent="1">
          <mxGeometry x="410" y="200" width="10" height="10" as="geometry" />
        </mxCell>
        <mxCell id="FlTq5NcB_ZuWoMm5LYxy-40" value="" style="endArrow=none;html=1;rounded=0;exitX=0.923;exitY=0.76;exitDx=0;exitDy=0;exitPerimeter=0;entryX=0;entryY=0.5;entryDx=0;entryDy=0;" edge="1" parent="1" source="FlTq5NcB_ZuWoMm5LYxy-10" target="EkAaGMqCYUGxByEIw1Pd-4">
          <mxGeometry width="50" height="50" relative="1" as="geometry">
            <mxPoint x="210" y="230" as="sourcePoint" />
            <mxPoint x="230" y="250" as="targetPoint" />
          </mxGeometry>
        </mxCell>
        <mxCell id="FlTq5NcB_ZuWoMm5LYxy-41" value="forma&amp;nbsp;&lt;div&gt;parte&lt;/div&gt;" style="rhombus;whiteSpace=wrap;html=1;" vertex="1" parent="1">
          <mxGeometry x="-50" y="292.5" width="70" height="57.5" as="geometry" />
        </mxCell>
        <mxCell id="FlTq5NcB_ZuWoMm5LYxy-42" value="" style="endArrow=none;html=1;rounded=0;exitX=0.5;exitY=0;exitDx=0;exitDy=0;entryX=0.5;entryY=1;entryDx=0;entryDy=0;" edge="1" parent="1" source="FlTq5NcB_ZuWoMm5LYxy-41" target="EkAaGMqCYUGxByEIw1Pd-5">
          <mxGeometry width="50" height="50" relative="1" as="geometry">
            <mxPoint x="-20" y="287.5" as="sourcePoint" />
            <mxPoint x="30" y="237.5" as="targetPoint" />
          </mxGeometry>
        </mxCell>
        <mxCell id="FlTq5NcB_ZuWoMm5LYxy-98" value="(1,N)" style="edgeLabel;html=1;align=center;verticalAlign=middle;resizable=0;points=[];" vertex="1" connectable="0" parent="FlTq5NcB_ZuWoMm5LYxy-42">
          <mxGeometry x="0.1159" y="1" relative="1" as="geometry">
            <mxPoint as="offset" />
          </mxGeometry>
        </mxCell>
        <mxCell id="FlTq5NcB_ZuWoMm5LYxy-43" value="PERSONA" style="rounded=0;whiteSpace=wrap;html=1;fontStyle=1" vertex="1" parent="1">
          <mxGeometry x="-75" y="420" width="120" height="30" as="geometry" />
        </mxCell>
        <mxCell id="FlTq5NcB_ZuWoMm5LYxy-44" value="" style="endArrow=none;html=1;rounded=0;entryX=0.5;entryY=1;entryDx=0;entryDy=0;" edge="1" parent="1" target="FlTq5NcB_ZuWoMm5LYxy-41">
          <mxGeometry width="50" height="50" relative="1" as="geometry">
            <mxPoint x="-15" y="420" as="sourcePoint" />
            <mxPoint x="40" y="350" as="targetPoint" />
          </mxGeometry>
        </mxCell>
        <mxCell id="FlTq5NcB_ZuWoMm5LYxy-97" value="(0,N)" style="edgeLabel;html=1;align=center;verticalAlign=middle;resizable=0;points=[];" vertex="1" connectable="0" parent="FlTq5NcB_ZuWoMm5LYxy-44">
          <mxGeometry x="0.2106" y="1" relative="1" as="geometry">
            <mxPoint as="offset" />
          </mxGeometry>
        </mxCell>
        <mxCell id="FlTq5NcB_ZuWoMm5LYxy-45" value="" style="endArrow=none;html=1;rounded=0;entryX=0.418;entryY=0.963;entryDx=0;entryDy=0;entryPerimeter=0;" edge="1" parent="1">
          <mxGeometry width="50" height="50" relative="1" as="geometry">
            <mxPoint x="-20" y="521.11" as="sourcePoint" />
            <mxPoint x="-19.839999999999918" y="450" as="targetPoint" />
          </mxGeometry>
        </mxCell>
        <mxCell id="FlTq5NcB_ZuWoMm5LYxy-46" value="" style="endArrow=none;html=1;rounded=0;" edge="1" parent="1">
          <mxGeometry width="50" height="50" relative="1" as="geometry">
            <mxPoint x="-10" y="521" as="sourcePoint" />
            <mxPoint x="-10" y="450" as="targetPoint" />
          </mxGeometry>
        </mxCell>
        <mxCell id="FlTq5NcB_ZuWoMm5LYxy-47" value="O" style="ellipse;whiteSpace=wrap;html=1;aspect=fixed;" vertex="1" parent="1">
          <mxGeometry x="-35" y="510" width="40" height="40" as="geometry" />
        </mxCell>
        <mxCell id="FlTq5NcB_ZuWoMm5LYxy-48" value="DIRECTOR" style="rounded=0;whiteSpace=wrap;html=1;fontStyle=1" vertex="1" parent="1">
          <mxGeometry x="-180" y="600" width="120" height="30" as="geometry" />
        </mxCell>
        <mxCell id="FlTq5NcB_ZuWoMm5LYxy-49" value="ACTOR" style="rounded=0;whiteSpace=wrap;html=1;fontStyle=1" vertex="1" parent="1">
          <mxGeometry x="20" y="600" width="120" height="30" as="geometry" />
        </mxCell>
        <mxCell id="FlTq5NcB_ZuWoMm5LYxy-51" value="" style="endArrow=none;html=1;rounded=0;exitX=1;exitY=1;exitDx=0;exitDy=0;entryX=0;entryY=0;entryDx=0;entryDy=0;" edge="1" parent="1" source="FlTq5NcB_ZuWoMm5LYxy-47" target="FlTq5NcB_ZuWoMm5LYxy-49">
          <mxGeometry width="50" height="50" relative="1" as="geometry">
            <mxPoint x="190" y="470" as="sourcePoint" />
            <mxPoint x="240" y="420" as="targetPoint" />
          </mxGeometry>
        </mxCell>
        <mxCell id="FlTq5NcB_ZuWoMm5LYxy-52" value="interpreta" style="rhombus;whiteSpace=wrap;html=1;" vertex="1" parent="1">
          <mxGeometry x="200" y="586.25" width="70" height="57.5" as="geometry" />
        </mxCell>
        <mxCell id="FlTq5NcB_ZuWoMm5LYxy-53" value="" style="endArrow=none;html=1;rounded=0;exitX=1;exitY=0.5;exitDx=0;exitDy=0;" edge="1" parent="1" source="FlTq5NcB_ZuWoMm5LYxy-49" target="FlTq5NcB_ZuWoMm5LYxy-52">
          <mxGeometry width="50" height="50" relative="1" as="geometry">
            <mxPoint x="150" y="500" as="sourcePoint" />
            <mxPoint x="200" y="450" as="targetPoint" />
          </mxGeometry>
        </mxCell>
        <mxCell id="FlTq5NcB_ZuWoMm5LYxy-100" value="(0,N)" style="edgeLabel;html=1;align=center;verticalAlign=middle;resizable=0;points=[];" vertex="1" connectable="0" parent="FlTq5NcB_ZuWoMm5LYxy-53">
          <mxGeometry x="-0.2495" y="1" relative="1" as="geometry">
            <mxPoint as="offset" />
          </mxGeometry>
        </mxCell>
        <mxCell id="FlTq5NcB_ZuWoMm5LYxy-54" value="PERSONAJE" style="rounded=0;whiteSpace=wrap;html=1;fontStyle=1" vertex="1" parent="1">
          <mxGeometry x="330" y="600" width="120" height="30" as="geometry" />
        </mxCell>
        <mxCell id="FlTq5NcB_ZuWoMm5LYxy-55" value="" style="endArrow=none;html=1;rounded=0;exitX=1;exitY=0.5;exitDx=0;exitDy=0;entryX=0;entryY=0.5;entryDx=0;entryDy=0;" edge="1" parent="1" source="FlTq5NcB_ZuWoMm5LYxy-52" target="FlTq5NcB_ZuWoMm5LYxy-54">
          <mxGeometry width="50" height="50" relative="1" as="geometry">
            <mxPoint x="150" y="500" as="sourcePoint" />
            <mxPoint x="200" y="450" as="targetPoint" />
          </mxGeometry>
        </mxCell>
        <mxCell id="FlTq5NcB_ZuWoMm5LYxy-99" value="(0,M)" style="edgeLabel;html=1;align=center;verticalAlign=middle;resizable=0;points=[];" vertex="1" connectable="0" parent="FlTq5NcB_ZuWoMm5LYxy-55">
          <mxGeometry x="-0.4114" relative="1" as="geometry">
            <mxPoint as="offset" />
          </mxGeometry>
        </mxCell>
        <mxCell id="FlTq5NcB_ZuWoMm5LYxy-56" value="&lt;u&gt;id_personaje&lt;/u&gt;" style="ellipse;whiteSpace=wrap;html=1;" vertex="1" parent="1">
          <mxGeometry x="523.75" y="520" width="80" height="42.5" as="geometry" />
        </mxCell>
        <mxCell id="FlTq5NcB_ZuWoMm5LYxy-57" value="nombre" style="ellipse;whiteSpace=wrap;html=1;" vertex="1" parent="1">
          <mxGeometry x="540" y="593.75" width="80" height="42.5" as="geometry" />
        </mxCell>
        <mxCell id="FlTq5NcB_ZuWoMm5LYxy-58" value="descripción" style="ellipse;whiteSpace=wrap;html=1;" vertex="1" parent="1">
          <mxGeometry x="523.75" y="680" width="80" height="42.5" as="geometry" />
        </mxCell>
        <mxCell id="FlTq5NcB_ZuWoMm5LYxy-60" value="" style="endArrow=none;html=1;rounded=0;exitX=1;exitY=0;exitDx=0;exitDy=0;entryX=0;entryY=0.5;entryDx=0;entryDy=0;" edge="1" parent="1" source="FlTq5NcB_ZuWoMm5LYxy-54" target="FlTq5NcB_ZuWoMm5LYxy-56">
          <mxGeometry width="50" height="50" relative="1" as="geometry">
            <mxPoint x="460" y="610" as="sourcePoint" />
            <mxPoint x="510" y="560" as="targetPoint" />
          </mxGeometry>
        </mxCell>
        <mxCell id="FlTq5NcB_ZuWoMm5LYxy-61" value="" style="endArrow=none;html=1;rounded=0;exitX=1;exitY=0.5;exitDx=0;exitDy=0;entryX=0;entryY=0.5;entryDx=0;entryDy=0;" edge="1" parent="1" source="FlTq5NcB_ZuWoMm5LYxy-54" target="FlTq5NcB_ZuWoMm5LYxy-57">
          <mxGeometry width="50" height="50" relative="1" as="geometry">
            <mxPoint x="473.75" y="630" as="sourcePoint" />
            <mxPoint x="523.75" y="580" as="targetPoint" />
          </mxGeometry>
        </mxCell>
        <mxCell id="FlTq5NcB_ZuWoMm5LYxy-62" value="" style="endArrow=none;html=1;rounded=0;exitX=1;exitY=1;exitDx=0;exitDy=0;entryX=0;entryY=0.5;entryDx=0;entryDy=0;" edge="1" parent="1" source="FlTq5NcB_ZuWoMm5LYxy-54" target="FlTq5NcB_ZuWoMm5LYxy-58">
          <mxGeometry width="50" height="50" relative="1" as="geometry">
            <mxPoint x="450" y="680" as="sourcePoint" />
            <mxPoint x="510" y="610" as="targetPoint" />
          </mxGeometry>
        </mxCell>
        <mxCell id="FlTq5NcB_ZuWoMm5LYxy-63" value="&lt;u&gt;id_persona&lt;/u&gt;" style="ellipse;whiteSpace=wrap;html=1;" vertex="1" parent="1">
          <mxGeometry x="110" y="377.5" width="80" height="42.5" as="geometry" />
        </mxCell>
        <mxCell id="FlTq5NcB_ZuWoMm5LYxy-64" value="nombre&amp;nbsp;&amp;nbsp;&lt;div&gt;&amp;nbsp;y&amp;nbsp;&lt;/div&gt;&lt;div&gt;apellido&lt;/div&gt;" style="ellipse;whiteSpace=wrap;html=1;" vertex="1" parent="1">
          <mxGeometry x="105" y="440" width="90" height="50" as="geometry" />
        </mxCell>
        <mxCell id="FlTq5NcB_ZuWoMm5LYxy-65" value="" style="endArrow=none;html=1;rounded=0;entryX=0;entryY=0.5;entryDx=0;entryDy=0;exitX=1;exitY=0.75;exitDx=0;exitDy=0;" edge="1" parent="1" source="FlTq5NcB_ZuWoMm5LYxy-43" target="FlTq5NcB_ZuWoMm5LYxy-64">
          <mxGeometry width="50" height="50" relative="1" as="geometry">
            <mxPoint x="50" y="510" as="sourcePoint" />
            <mxPoint x="100" y="460" as="targetPoint" />
          </mxGeometry>
        </mxCell>
        <mxCell id="FlTq5NcB_ZuWoMm5LYxy-66" value="" style="endArrow=none;html=1;rounded=0;exitX=1;exitY=0.25;exitDx=0;exitDy=0;entryX=0;entryY=0.5;entryDx=0;entryDy=0;" edge="1" parent="1" source="FlTq5NcB_ZuWoMm5LYxy-43" target="FlTq5NcB_ZuWoMm5LYxy-63">
          <mxGeometry width="50" height="50" relative="1" as="geometry">
            <mxPoint x="45" y="410" as="sourcePoint" />
            <mxPoint x="95" y="360" as="targetPoint" />
          </mxGeometry>
        </mxCell>
        <mxCell id="FlTq5NcB_ZuWoMm5LYxy-67" value="&lt;u&gt;id_usuario&lt;/u&gt;" style="ellipse;whiteSpace=wrap;html=1;" vertex="1" parent="1">
          <mxGeometry x="-570" y="90" width="80" height="42.5" as="geometry" />
        </mxCell>
        <mxCell id="FlTq5NcB_ZuWoMm5LYxy-68" value="dirección" style="ellipse;whiteSpace=wrap;html=1;" vertex="1" parent="1">
          <mxGeometry x="-570" y="300" width="80" height="42.5" as="geometry" />
        </mxCell>
        <mxCell id="FlTq5NcB_ZuWoMm5LYxy-69" value="mail" style="ellipse;whiteSpace=wrap;html=1;" vertex="1" parent="1">
          <mxGeometry x="-570" y="223.75" width="80" height="42.5" as="geometry" />
        </mxCell>
        <mxCell id="FlTq5NcB_ZuWoMm5LYxy-70" value="nombre" style="ellipse;whiteSpace=wrap;html=1;" vertex="1" parent="1">
          <mxGeometry x="-570" y="157.5" width="80" height="42.5" as="geometry" />
        </mxCell>
        <mxCell id="FlTq5NcB_ZuWoMm5LYxy-71" value="" style="endArrow=none;html=1;rounded=0;exitX=1;exitY=0.5;exitDx=0;exitDy=0;entryX=0;entryY=0;entryDx=0;entryDy=0;" edge="1" parent="1" source="FlTq5NcB_ZuWoMm5LYxy-67" target="EkAaGMqCYUGxByEIw1Pd-2">
          <mxGeometry width="50" height="50" relative="1" as="geometry">
            <mxPoint x="-480" y="150" as="sourcePoint" />
            <mxPoint x="-430" y="100" as="targetPoint" />
          </mxGeometry>
        </mxCell>
        <mxCell id="FlTq5NcB_ZuWoMm5LYxy-72" value="" style="endArrow=none;html=1;rounded=0;entryX=1;entryY=0.5;entryDx=0;entryDy=0;exitX=0;exitY=0.25;exitDx=0;exitDy=0;" edge="1" parent="1" source="EkAaGMqCYUGxByEIw1Pd-2" target="FlTq5NcB_ZuWoMm5LYxy-70">
          <mxGeometry width="50" height="50" relative="1" as="geometry">
            <mxPoint x="-463" y="302.5" as="sourcePoint" />
            <mxPoint x="-413" y="252.5" as="targetPoint" />
          </mxGeometry>
        </mxCell>
        <mxCell id="FlTq5NcB_ZuWoMm5LYxy-73" value="" style="endArrow=none;html=1;rounded=0;exitX=1;exitY=0.5;exitDx=0;exitDy=0;entryX=0;entryY=0.75;entryDx=0;entryDy=0;" edge="1" parent="1" source="FlTq5NcB_ZuWoMm5LYxy-69" target="EkAaGMqCYUGxByEIw1Pd-2">
          <mxGeometry width="50" height="50" relative="1" as="geometry">
            <mxPoint x="-438" y="302.5" as="sourcePoint" />
            <mxPoint x="-388" y="252.5" as="targetPoint" />
          </mxGeometry>
        </mxCell>
        <mxCell id="FlTq5NcB_ZuWoMm5LYxy-74" value="" style="endArrow=none;html=1;rounded=0;exitX=1;exitY=0.5;exitDx=0;exitDy=0;entryX=0;entryY=1;entryDx=0;entryDy=0;" edge="1" parent="1" source="FlTq5NcB_ZuWoMm5LYxy-68" target="EkAaGMqCYUGxByEIw1Pd-2">
          <mxGeometry width="50" height="50" relative="1" as="geometry">
            <mxPoint x="-480" y="322.5" as="sourcePoint" />
            <mxPoint x="-430" y="272.5" as="targetPoint" />
          </mxGeometry>
        </mxCell>
        <mxCell id="FlTq5NcB_ZuWoMm5LYxy-75" value="fin" style="ellipse;whiteSpace=wrap;html=1;" vertex="1" parent="1">
          <mxGeometry x="-155" y="110" width="80" height="42.5" as="geometry" />
        </mxCell>
        <mxCell id="FlTq5NcB_ZuWoMm5LYxy-76" value="comienzo" style="ellipse;whiteSpace=wrap;html=1;" vertex="1" parent="1">
          <mxGeometry x="-293" y="110" width="80" height="42.5" as="geometry" />
        </mxCell>
        <mxCell id="FlTq5NcB_ZuWoMm5LYxy-77" value="" style="endArrow=none;html=1;rounded=0;exitX=1;exitY=0;exitDx=0;exitDy=0;entryX=0.5;entryY=1;entryDx=0;entryDy=0;" edge="1" parent="1" source="FlTq5NcB_ZuWoMm5LYxy-5" target="FlTq5NcB_ZuWoMm5LYxy-75">
          <mxGeometry width="50" height="50" relative="1" as="geometry">
            <mxPoint x="-160" y="195" as="sourcePoint" />
            <mxPoint x="-120" y="150" as="targetPoint" />
          </mxGeometry>
        </mxCell>
        <mxCell id="FlTq5NcB_ZuWoMm5LYxy-78" value="" style="endArrow=none;html=1;rounded=0;exitX=0.632;exitY=0.963;exitDx=0;exitDy=0;exitPerimeter=0;entryX=0;entryY=0;entryDx=0;entryDy=0;" edge="1" parent="1" source="FlTq5NcB_ZuWoMm5LYxy-76" target="FlTq5NcB_ZuWoMm5LYxy-5">
          <mxGeometry width="50" height="50" relative="1" as="geometry">
            <mxPoint x="-213" y="170" as="sourcePoint" />
            <mxPoint x="-163" y="120" as="targetPoint" />
          </mxGeometry>
        </mxCell>
        <mxCell id="FlTq5NcB_ZuWoMm5LYxy-79" value="&lt;u&gt;id_pelicula&lt;/u&gt;" style="ellipse;whiteSpace=wrap;html=1;" vertex="1" parent="1">
          <mxGeometry x="460" y="20" width="80" height="42.5" as="geometry" />
        </mxCell>
        <mxCell id="FlTq5NcB_ZuWoMm5LYxy-80" value="duración" style="ellipse;whiteSpace=wrap;html=1;" vertex="1" parent="1">
          <mxGeometry x="460" y="130" width="80" height="42.5" as="geometry" />
        </mxCell>
        <mxCell id="FlTq5NcB_ZuWoMm5LYxy-81" value="" style="endArrow=none;html=1;rounded=0;entryX=1;entryY=0.5;entryDx=0;entryDy=0;exitX=0;exitY=0.5;exitDx=0;exitDy=0;" edge="1" parent="1" source="FlTq5NcB_ZuWoMm5LYxy-80" target="EkAaGMqCYUGxByEIw1Pd-1">
          <mxGeometry width="50" height="50" relative="1" as="geometry">
            <mxPoint x="389" y="172.5" as="sourcePoint" />
            <mxPoint x="439" y="122.5" as="targetPoint" />
          </mxGeometry>
        </mxCell>
        <mxCell id="FlTq5NcB_ZuWoMm5LYxy-82" value="" style="endArrow=none;html=1;rounded=0;exitX=1;exitY=0.5;exitDx=0;exitDy=0;entryX=0;entryY=0.5;entryDx=0;entryDy=0;" edge="1" parent="1" source="EkAaGMqCYUGxByEIw1Pd-1" target="FlTq5NcB_ZuWoMm5LYxy-79">
          <mxGeometry width="50" height="50" relative="1" as="geometry">
            <mxPoint x="390" y="60" as="sourcePoint" />
            <mxPoint x="440" y="10" as="targetPoint" />
          </mxGeometry>
        </mxCell>
        <mxCell id="FlTq5NcB_ZuWoMm5LYxy-87" value="" style="rounded=0;orthogonalLoop=1;jettySize=auto;html=1;endArrow=halfCircle;endFill=0;endSize=6;strokeWidth=1;sketch=0;fontSize=12;curved=1;exitX=0;exitY=0;exitDx=0;exitDy=0;" edge="1" parent="1" source="FlTq5NcB_ZuWoMm5LYxy-49">
          <mxGeometry relative="1" as="geometry">
            <mxPoint x="75" y="455" as="sourcePoint" />
            <mxPoint x="10" y="570" as="targetPoint" />
          </mxGeometry>
        </mxCell>
        <mxCell id="FlTq5NcB_ZuWoMm5LYxy-88" value="" style="ellipse;whiteSpace=wrap;html=1;align=center;aspect=fixed;fillColor=none;strokeColor=none;resizable=0;perimeter=centerPerimeter;rotatable=0;allowArrows=0;points=[];outlineConnect=1;" vertex="1" parent="1">
          <mxGeometry x="10" y="536.25" width="10" height="10" as="geometry" />
        </mxCell>
        <mxCell id="FlTq5NcB_ZuWoMm5LYxy-90" value="" style="ellipse;whiteSpace=wrap;html=1;align=center;aspect=fixed;fillColor=none;strokeColor=none;resizable=0;perimeter=centerPerimeter;rotatable=0;allowArrows=0;points=[];outlineConnect=1;" vertex="1" parent="1">
          <mxGeometry x="130" y="630" width="10" height="10" as="geometry" />
        </mxCell>
        <mxCell id="FlTq5NcB_ZuWoMm5LYxy-91" value="" style="rounded=0;orthogonalLoop=1;jettySize=auto;html=1;endArrow=halfCircle;endFill=0;endSize=6;strokeWidth=1;sketch=0;fontSize=12;curved=1;exitX=1;exitY=0;exitDx=0;exitDy=0;" edge="1" target="FlTq5NcB_ZuWoMm5LYxy-92" parent="1" source="FlTq5NcB_ZuWoMm5LYxy-48">
          <mxGeometry relative="1" as="geometry">
            <mxPoint x="-25" y="636.25" as="sourcePoint" />
          </mxGeometry>
        </mxCell>
        <mxCell id="FlTq5NcB_ZuWoMm5LYxy-92" value="" style="ellipse;whiteSpace=wrap;html=1;align=center;aspect=fixed;fillColor=none;strokeColor=none;resizable=0;perimeter=centerPerimeter;rotatable=0;allowArrows=0;points=[];outlineConnect=1;" vertex="1" parent="1">
          <mxGeometry x="-45" y="562.5" width="10" height="10" as="geometry" />
        </mxCell>
        <mxCell id="FlTq5NcB_ZuWoMm5LYxy-93" value="" style="endArrow=none;html=1;rounded=0;entryX=0.236;entryY=0.961;entryDx=0;entryDy=0;exitX=1;exitY=0;exitDx=0;exitDy=0;entryPerimeter=0;" edge="1" parent="1" source="FlTq5NcB_ZuWoMm5LYxy-48" target="FlTq5NcB_ZuWoMm5LYxy-47">
          <mxGeometry width="50" height="50" relative="1" as="geometry">
            <mxPoint x="-65" y="622.5" as="sourcePoint" />
            <mxPoint x="-15" y="572.5" as="targetPoint" />
          </mxGeometry>
        </mxCell>
      </root>
    </mxGraphModel>
  </diagram>
</mxfile>
